<?xml version="1.0" encoding="UTF-8" standalone="no"?>
<!-- Created with Inkscape (http://www.inkscape.org/) -->

<svg
   xmlns:dc="http://purl.org/dc/elements/1.1/"
   xmlns:cc="http://creativecommons.org/ns#"
   xmlns:rdf="http://www.w3.org/1999/02/22-rdf-syntax-ns#"
   xmlns:svg="http://www.w3.org/2000/svg"
   xmlns="http://www.w3.org/2000/svg"
   xmlns:sodipodi="http://sodipodi.sourceforge.net/DTD/sodipodi-0.dtd"
   xmlns:inkscape="http://www.inkscape.org/namespaces/inkscape"
   width="529.27802"
   height="300"
   viewBox="0 0 140.03814 79.375002"
   version="1.1"
   id="svg8"
   inkscape:version="0.92.3 (2405546, 2018-03-11)"
   sodipodi:docname="rails-id-logo.svg"
   inkscape:export-filename="/home/ner46/Pictures/Design Stuff/rails.id/rails-logo.png"
   inkscape:export-xdpi="96"
   inkscape:export-ydpi="96">
  <defs
     id="defs2" />
  <sodipodi:namedview
     id="base"
     pagecolor="#ffffff"
     bordercolor="#666666"
     borderopacity="1.0"
     inkscape:pageopacity="0.0"
     inkscape:pageshadow="2"
     inkscape:zoom="0.98994949"
     inkscape:cx="202.43522"
     inkscape:cy="115.40503"
     inkscape:document-units="mm"
     inkscape:current-layer="text1001"
     showgrid="false"
     units="px"
     inkscape:window-width="1366"
     inkscape:window-height="718"
     inkscape:window-x="0"
     inkscape:window-y="22"
     inkscape:window-maximized="1" />
  <metadata
     id="metadata5">
    <rdf:RDF>
      <cc:Work
         rdf:about="">
        <dc:format>image/svg+xml</dc:format>
        <dc:type
           rdf:resource="http://purl.org/dc/dcmitype/StillImage" />
        <dc:title></dc:title>
      </cc:Work>
    </rdf:RDF>
  </metadata>
  <g
     inkscape:label="Layer 1"
     inkscape:groupmode="layer"
     id="layer1"
     transform="translate(0,-217.62498)">
    <flowRoot
       xml:space="preserve"
       id="flowRoot815"
       style="font-style:normal;font-weight:normal;font-size:40px;line-height:0;font-family:sans-serif;letter-spacing:0px;word-spacing:0px;fill:#000000;fill-opacity:1;stroke:none"
       transform="scale(0.26458333)"><flowRegion
         id="flowRegion817"><rect
           id="rect819"
           width="905.71429"
           height="165.71428"
           x="-1088.5714"
           y="285.37683" /></flowRegion><flowPara
         id="flowPara821" /></flowRoot>    <g
       id="g1026"
       transform="matrix(1.1292201,0,0,1.1292201,-48.54904,79.690241)">
      <g
         transform="matrix(0.26458333,0,0,0.26458333,52.096563,129.97917)"
         id="g970">
        <path
           style="fill:#cc0000"
           inkscape:connector-curvature="0"
           class="a"
           d="m 346.6,121.5 v 18.1 c 0,0 23.4,0 32.7,0 6.7,0 18.2,-4.9 18.6,-18.6 0,-0.6 0,-6.5 0,-7 0,-11.7 -9.6,-18.6 -18.6,-18.6 -4.2,0 -16.3,0 -16.3,0 V 87 h 32.3 V 68.8 c 0,0 -22.2,0 -31,0 -8,0 -18.7,6.6 -18.7,18.9 0,1.2 0,5.2 0,6.3 0,12.3 10.6,18.6 18.7,18.6 22.5,0.1 -5.4,0 15.4,0 0,8.8 0,8.8 0,8.8"
           id="path934" />
        <path
           style="fill:#cc0000"
           inkscape:connector-curvature="0"
           class="a"
           d="m 171.4,117.1 c 0,0 17.5,-1.5 17.5,-24.1 0,-22.6 -21.2,-24.7 -21.2,-24.7 h -38.2 v 71.3 h 19.2 v -17.2 l 16.6,17.2 h 28.4 z M 164,102.5 H 148.7 V 86.2 h 15.4 c 0,0 4.3,1.6 4.3,8.1 0,6.5 -4.4,8.2 -4.4,8.2 z"
           id="path936" />
        <path
           style="fill:#cc0000"
           inkscape:connector-curvature="0"
           class="a"
           d="m 236.3,68.8 c -4.9,0 -5.6,0 -19.5,0 -13.9,0 -18.6,12.6 -18.6,18.6 0,13 0,52.2 0,52.2 h 19.5 V 127.1 H 236 v 12.5 h 18.9 c 0,0 0,-38.5 0,-52.2 0,-15.2 -13.8,-18.6 -18.6,-18.6 z M 236,106.9 H 217.6 V 89.6 c 0,0 0,-3.9 6.1,-3.9 5.6,0 1,0 6.7,0 5.4,0 5.5,3.9 5.5,3.9 v 17.3 z"
           id="path938" />
        <rect
           style="fill:#cc0000"
           x="263.79999"
           y="68.800003"
           class="a"
           width="20.299999"
           height="70.800003"
           id="rect940" />
        <polygon
           style="fill:#cc0000"
           class="a"
           points="292.4,139.6 312.6,139.6 339.9,139.6 339.9,121.3 312.6,121.3 312.6,68.8 292.4,68.8 292.4,121.3 "
           id="polygon942" />
        <path
           style="fill:#cc0000"
           inkscape:connector-curvature="0"
           class="a"
           d="m 9,139.6 h 79 c 0,0 -15.1,-68.9 34.9,-96.8 10.9,-5.3 45.6,-25.1 102.4,16.9 1.8,-1.5 3.5,-2.7 3.5,-2.7 0,0 -52,-51.9 -109.9,-46.1 C 89.8,13.5 54,40 33,75 12,110 9,139.6 9,139.6 Z"
           id="path944" />
        <path
           style="fill:#cc0000"
           inkscape:connector-curvature="0"
           class="a"
           d="m 9,139.6 h 79 c 0,0 -15.1,-68.9 34.9,-96.8 10.9,-5.3 45.6,-25.1 102.4,16.9 1.8,-1.5 3.5,-2.7 3.5,-2.7 0,0 -52,-51.9 -109.9,-46.1 C 89.8,13.5 54,40 33,75 12,110 9,139.6 9,139.6 Z"
           id="path946" />
        <path
           style="fill:#cc0000"
           inkscape:connector-curvature="0"
           class="a"
           d="m 9,139.6 h 79 c 0,0 -15.1,-68.9 34.9,-96.8 10.9,-5.3 45.6,-25.1 102.4,16.9 1.8,-1.5 3.5,-2.7 3.5,-2.7 0,0 -52,-51.9 -109.9,-46.1 C 89.7,13.5 53.9,40 32.9,75 11.9,110 9,139.6 9,139.6 Z"
           id="path948" />
        <path
           style="fill:#cc0000"
           inkscape:connector-curvature="0"
           class="a"
           d="M 173.6,16.5 174,9.8 c -0.9,-0.5 -3.4,-1.7 -9.7,-3.5 l -0.4,6.6 c 3.3,1.1 6.5,2.3 9.7,3.6 z"
           id="path950" />
        <path
           style="fill:#cc0000"
           inkscape:connector-curvature="0"
           class="a"
           d="m 164.1,37.7 -0.4,6.3 c 3.3,0.1 6.6,0.5 9.9,1.2 L 174,39 c -3.4,-0.7 -6.7,-1.1 -9.9,-1.3 z"
           id="path952" />
        <path
           style="fill:#cc0000"
           inkscape:connector-curvature="0"
           class="a"
           d="m 127.1,6.5 c 0.3,0 0.7,0 1,0 l -2,-6.1 c -3.1,0 -6.3,0.2 -9.6,0.6 l 1.9,5.9 c 2.9,-0.3 5.8,-0.4 8.7,-0.4 z"
           id="path954" />
        <path
           style="fill:#cc0000"
           inkscape:connector-curvature="0"
           class="a"
           d="m 131.9,43.3 2.3,6.9 c 2.9,-1.4 5.8,-2.6 8.7,-3.5 l -2.2,-6.6 c -3.4,1 -6.3,2.1 -8.8,3.2 z"
           id="path956" />
        <path
           style="fill:#cc0000"
           inkscape:connector-curvature="0"
           class="a"
           d="M 86.5,17 82,10.1 c -2.5,1.3 -5.1,2.7 -7.8,4.3 l 4.6,7 c 2.6,-1.6 5.1,-3.1 7.7,-4.4 z"
           id="path958" />
        <path
           style="fill:#cc0000"
           inkscape:connector-curvature="0"
           class="a"
           d="m 107,62 4.8,7.2 c 1.7,-2.5 3.7,-4.8 5.9,-7.1 l -4.5,-6.8 c -2.3,2.1 -4.4,4.4 -6.2,6.7 z"
           id="path960" />
        <path
           style="fill:#cc0000"
           inkscape:connector-curvature="0"
           class="a"
           d="m 92.5,94.2 8.1,6.4 c 0.4,-3.9 1.1,-7.8 2.1,-11.7 l -7.2,-5.7 c -1.3,3.7 -2.2,7.4 -3,11 z"
           id="path962" />
        <path
           style="fill:#cc0000"
           inkscape:connector-curvature="0"
           class="a"
           d="M 48.7,46.7 41.6,40.5 C 39,43 36.5,45.5 34.2,48 l 7.7,6.6 c 2.1,-2.7 4.4,-5.4 6.8,-7.9 z"
           id="path964" />
        <path
           style="fill:#cc0000"
           inkscape:connector-curvature="0"
           class="a"
           d="M 18.5,91.4 7,87.2 c -1.9,4.3 -4,9.3 -5,12 l 11.5,4.2 c 1.3,-3.4 3.4,-8.3 5,-12 z"
           id="path966" />
        <path
           style="fill:#cc0000"
           inkscape:connector-curvature="0"
           class="a"
           d="m 91,119.6 c 0.2,5.3 0.7,9.6 1.2,12.6 l 12,4.3 c -0.9,-3.9 -1.8,-8.3 -2.4,-13 z"
           id="path968" />
      </g>
      <g
         aria-label="INDONESIA"
         style="font-style:normal;font-variant:normal;font-weight:normal;font-stretch:normal;font-size:20.99856758px;line-height:0;font-family:Baloo;-inkscape-font-specification:'Baloo, Normal';font-variant-ligatures:normal;font-variant-caps:normal;font-variant-numeric:normal;font-feature-settings:normal;text-align:start;letter-spacing:0px;word-spacing:0px;writing-mode:lr-tb;text-anchor:start;opacity:0.95;fill:#1a1a1a;fill-opacity:1;stroke:none;stroke-width:0.52496105"
         id="text1001">
        <path
           d="m 56.300547,184.12003 q -0.230984,0.063 -0.73495,0.12599 -0.482967,0.063 -0.965934,0.063 -0.482967,0 -0.860941,-0.084 -0.356976,-0.063 -0.608959,-0.25198 -0.251982,-0.18899 -0.377974,-0.52496 -0.125991,-0.33598 -0.125991,-0.88194 v -11.08725 q 0.230984,-0.042 0.73495,-0.10499 0.503965,-0.084 0.965934,-0.084 0.482967,0 0.839943,0.084 0.377974,0.063 0.629957,0.25198 0.251982,0.18899 0.377974,0.52497 0.125991,0.33597 0.125991,0.88194 z"
           style="font-style:normal;font-variant:normal;font-weight:normal;font-stretch:normal;font-size:20.99856758px;font-family:Baloo;-inkscape-font-specification:'Baloo, Normal';font-variant-ligatures:normal;font-variant-caps:normal;font-variant-numeric:normal;font-feature-settings:normal;text-align:start;writing-mode:lr-tb;text-anchor:start;fill:#1a1a1a;fill-opacity:1;stroke-width:0.52496105"
           id="path862" />
        <path
           d="m 70.552013,183.76306 q -0.29398,0.29398 -0.860942,0.44097 -0.545962,0.16798 -1.322909,0.16798 -0.776947,0 -1.4699,-0.23098 -0.692953,-0.23098 -1.133923,-1.11292 l -2.078858,-4.24172 q -0.314978,-0.65095 -0.566961,-1.21791 -0.251983,-0.58796 -0.545963,-1.34391 l -0.125991,0.021 q 0.08399,1.13392 0.08399,2.30984 0.021,1.17592 0.021,2.30984 v 3.25478 q -0.230984,0.063 -0.713951,0.12599 -0.461968,0.063 -0.923937,0.063 -0.461968,0 -0.818944,-0.063 -0.356976,-0.063 -0.58796,-0.25198 -0.230984,-0.18899 -0.356976,-0.50397 -0.125991,-0.33597 -0.125991,-0.86094 v -10.49928 q 0.29398,-0.41997 0.902938,-0.62996 0.608959,-0.20998 1.301912,-0.20998 0.776947,0 1.469899,0.25198 0.713952,0.23098 1.133923,1.09192 l 2.099857,4.24172 q 0.314978,0.65095 0.566961,1.23891 0.251983,0.56696 0.545963,1.32291 l 0.104993,-0.021 q -0.084,-1.13392 -0.104993,-2.26784 -0.021,-1.13393 -0.021,-2.26785 v -3.40177 q 0.230985,-0.063 0.692953,-0.12599 0.482967,-0.063 0.944936,-0.063 0.923937,0 1.406904,0.33597 0.482967,0.31498 0.482967,1.34391 z"
           style="font-style:normal;font-variant:normal;font-weight:normal;font-stretch:normal;font-size:20.99856758px;font-family:Baloo;-inkscape-font-specification:'Baloo, Normal';font-variant-ligatures:normal;font-variant-caps:normal;font-variant-numeric:normal;font-feature-settings:normal;text-align:start;writing-mode:lr-tb;text-anchor:start;fill:#1a1a1a;fill-opacity:1;stroke-width:0.52496105"
           id="path864" />
        <path
           d="m 76.950014,181.47421 q 0.230984,0.042 0.566961,0.084 0.335977,0.021 0.629957,0.021 0.713952,0 1.301912,-0.20998 0.608958,-0.20999 1.028929,-0.65096 0.44097,-0.44097 0.671955,-1.13392 0.251982,-0.71395 0.251982,-1.70088 0,-1.88987 -0.881939,-2.83481 -0.88194,-0.96593 -2.35184,-0.96593 -0.29398,0 -0.608958,0.021 -0.29398,0.021 -0.608959,0.063 z m 1.17592,3.06579 q -0.356976,0 -0.818944,-0.021 -0.461969,-0.021 -0.965934,-0.084 -0.482967,-0.063 -0.986933,-0.16799 -0.482967,-0.084 -0.902938,-0.25198 -1.154922,-0.44097 -1.154922,-1.5329 v -9.80633 q 0,-0.44097 0.230985,-0.67195 0.251982,-0.25199 0.671954,-0.39898 0.902938,-0.29398 1.910869,-0.37797 1.007932,-0.10499 1.805877,-0.10499 1.637888,0 2.960798,0.39897 1.343909,0.39897 2.288844,1.23892 0.965934,0.81894 1.490898,2.07885 0.524965,1.25992 0.524965,2.9818 0,1.67989 -0.503966,2.9398 -0.503966,1.23892 -1.448901,2.09986 -0.923937,0.83994 -2.225848,1.25991 -1.301912,0.41997 -2.876804,0.41997 z"
           style="font-style:normal;font-variant:normal;font-weight:normal;font-stretch:normal;font-size:20.99856758px;font-family:Baloo;-inkscape-font-specification:'Baloo, Normal';font-variant-ligatures:normal;font-variant-caps:normal;font-variant-numeric:normal;font-feature-settings:normal;text-align:start;writing-mode:lr-tb;text-anchor:start;fill:#1a1a1a;fill-opacity:1;stroke-width:0.52496105"
           id="path866" />
        <path
           d="m 86.651679,177.82046 q 0,-1.63789 0.503965,-2.8978 0.524965,-1.25992 1.406904,-2.09986 0.902939,-0.86094 2.099857,-1.30191 1.217917,-0.44097 2.624821,-0.44097 1.406904,0 2.603823,0.44097 1.217916,0.44097 2.120855,1.30191 0.902938,0.83994 1.406904,2.09986 0.524964,1.25991 0.524964,2.8978 0,1.63789 -0.503966,2.9188 -0.503965,1.25992 -1.406904,2.12086 -0.881939,0.83994 -2.099856,1.28091 -1.217917,0.44097 -2.64582,0.44097 -1.427902,0 -2.645819,-0.44097 -1.217917,-0.46197 -2.099857,-1.32291 -0.88194,-0.86094 -1.385906,-2.12086 -0.503965,-1.25991 -0.503965,-2.8768 z m 3.779742,0 q 0,1.91087 0.776947,2.85581 0.776947,0.94493 2.078858,0.94493 1.32291,0 2.099857,-0.94493 0.776947,-0.94494 0.776947,-2.85581 0,-1.88987 -0.776947,-2.83481 -0.755948,-0.94493 -2.078858,-0.94493 -1.301911,0 -2.099857,0.94493 -0.776947,0.92394 -0.776947,2.83481 z"
           style="font-style:normal;font-variant:normal;font-weight:normal;font-stretch:normal;font-size:20.99856758px;font-family:Baloo;-inkscape-font-specification:'Baloo, Normal';font-variant-ligatures:normal;font-variant-caps:normal;font-variant-numeric:normal;font-feature-settings:normal;text-align:start;writing-mode:lr-tb;text-anchor:start;fill:#1a1a1a;fill-opacity:1;stroke-width:0.52496105"
           id="path868" />
        <path
           d="m 113.57447,183.76306 q -0.29398,0.29398 -0.86094,0.44097 -0.54597,0.16798 -1.32291,0.16798 -0.77695,0 -1.4699,-0.23098 -0.69296,-0.23098 -1.13393,-1.11292 l -2.07885,-4.24172 q -0.31498,-0.65095 -0.56697,-1.21791 -0.25198,-0.58796 -0.54596,-1.34391 l -0.12599,0.021 q 0.084,1.13392 0.084,2.30984 0.021,1.17592 0.021,2.30984 v 3.25478 q -0.23098,0.063 -0.71395,0.12599 -0.46197,0.063 -0.92394,0.063 -0.46196,0 -0.81894,-0.063 -0.35697,-0.063 -0.58796,-0.25198 -0.23098,-0.18899 -0.35697,-0.50397 -0.126,-0.33597 -0.126,-0.86094 v -10.49928 q 0.29398,-0.41997 0.90294,-0.62996 0.60896,-0.20998 1.30191,-0.20998 0.77695,0 1.4699,0.25198 0.71395,0.23098 1.13393,1.09192 l 2.09985,4.24172 q 0.31498,0.65095 0.56696,1.23891 0.25199,0.56696 0.54597,1.32291 l 0.10499,-0.021 q -0.084,-1.13392 -0.10499,-2.26784 -0.021,-1.13393 -0.021,-2.26785 v -3.40177 q 0.23098,-0.063 0.69295,-0.12599 0.48297,-0.063 0.94494,-0.063 0.92393,0 1.4069,0.33597 0.48297,0.31498 0.48297,1.34391 z"
           style="font-style:normal;font-variant:normal;font-weight:normal;font-stretch:normal;font-size:20.99856758px;font-family:Baloo;-inkscape-font-specification:'Baloo, Normal';font-variant-ligatures:normal;font-variant-caps:normal;font-variant-numeric:normal;font-feature-settings:normal;text-align:start;writing-mode:lr-tb;text-anchor:start;fill:#1a1a1a;fill-opacity:1;stroke-width:0.52496105"
           id="path870" />
        <path
           d="m 116.31872,173.43176 q 0,-0.90294 0.52496,-1.4279 0.52497,-0.52497 1.42791,-0.52497 h 6.92952 q 0.14699,0.23099 0.25199,0.60896 0.12599,0.37798 0.12599,0.79795 0,0.79794 -0.35698,1.13392 -0.33598,0.33598 -0.90294,0.33598 h -4.43069 v 1.95286 h 4.72467 q 0.14699,0.23099 0.25199,0.60896 0.12599,0.35698 0.12599,0.77695 0,0.79794 -0.33598,1.13392 -0.33598,0.33598 -0.90294,0.33598 h -3.86373 v 2.20485 h 5.39663 q 0.14699,0.23098 0.25198,0.60896 0.12599,0.37797 0.12599,0.79794 0,0.79795 -0.35697,1.15492 -0.33598,0.33598 -0.90294,0.33598 h -6.13158 q -0.90294,0 -1.42791,-0.52496 -0.52496,-0.52497 -0.52496,-1.42791 z"
           style="font-style:normal;font-variant:normal;font-weight:normal;font-stretch:normal;font-size:20.99856758px;font-family:Baloo;-inkscape-font-specification:'Baloo, Normal';font-variant-ligatures:normal;font-variant-caps:normal;font-variant-numeric:normal;font-feature-settings:normal;text-align:start;writing-mode:lr-tb;text-anchor:start;fill:#1a1a1a;fill-opacity:1;stroke-width:0.52496105"
           id="path872" />
        <path
           d="m 131.57811,179.14337 q -0.92393,-0.31498 -1.67988,-0.62996 -0.75595,-0.33597 -1.30191,-0.79794 -0.54597,-0.46197 -0.86095,-1.09193 -0.29398,-0.65095 -0.29398,-1.57489 0,-1.78488 1.36491,-2.85581 1.38591,-1.07092 3.86374,-1.07092 0.90294,0 1.67988,0.12599 0.77695,0.12599 1.32291,0.39897 0.56696,0.25198 0.88194,0.67196 0.31498,0.39897 0.31498,0.94493 0,0.54596 -0.25198,0.94494 -0.25198,0.37797 -0.60896,0.65095 -0.46197,-0.29398 -1.23892,-0.50396 -0.77694,-0.23099 -1.70088,-0.23099 -0.94493,0 -1.3859,0.27298 -0.44097,0.25199 -0.44097,0.65096 0,0.31498 0.27298,0.52496 0.27298,0.18899 0.81894,0.35698 l 1.11292,0.35698 q 1.97387,0.62995 3.0238,1.61688 1.07093,0.96594 1.07093,2.64582 0,1.78488 -1.40691,2.89781 -1.4069,1.09192 -4.13672,1.09192 -0.96593,0 -1.80587,-0.16799 -0.81895,-0.14699 -1.4489,-0.44097 -0.60896,-0.31497 -0.96594,-0.75594 -0.33598,-0.46197 -0.33598,-1.04993 0,-0.60896 0.35698,-1.02893 0.35698,-0.44097 0.77695,-0.67196 0.58796,0.46197 1.4279,0.79795 0.86094,0.33598 1.86887,0.33598 1.02893,0 1.4489,-0.31498 0.41997,-0.31498 0.41997,-0.73495 0,-0.41997 -0.33597,-0.62996 -0.33598,-0.23098 -0.94494,-0.44097 z"
           style="font-style:normal;font-variant:normal;font-weight:normal;font-stretch:normal;font-size:20.99856758px;font-family:Baloo;-inkscape-font-specification:'Baloo, Normal';font-variant-ligatures:normal;font-variant-caps:normal;font-variant-numeric:normal;font-feature-settings:normal;text-align:start;writing-mode:lr-tb;text-anchor:start;fill:#1a1a1a;fill-opacity:1;stroke-width:0.52496105"
           id="path874" />
        <path
           d="m 143.20673,184.12003 q -0.23099,0.063 -0.73495,0.12599 -0.48297,0.063 -0.96594,0.063 -0.48296,0 -0.86094,-0.084 -0.35697,-0.063 -0.60896,-0.25198 -0.25198,-0.18899 -0.37797,-0.52496 -0.12599,-0.33598 -0.12599,-0.88194 v -11.08725 q 0.23098,-0.042 0.73495,-0.10499 0.50396,-0.084 0.96593,-0.084 0.48297,0 0.83995,0.084 0.37797,0.063 0.62995,0.25198 0.25199,0.18899 0.37798,0.52497 0.12599,0.33597 0.12599,0.88194 z"
           style="font-style:normal;font-variant:normal;font-weight:normal;font-stretch:normal;font-size:20.99856758px;font-family:Baloo;-inkscape-font-specification:'Baloo, Normal';font-variant-ligatures:normal;font-variant-caps:normal;font-variant-numeric:normal;font-feature-settings:normal;text-align:start;writing-mode:lr-tb;text-anchor:start;fill:#1a1a1a;fill-opacity:1;stroke-width:0.52496105"
           id="path876" />
        <path
           d="m 148.6388,171.85687 q 0.35697,-0.20999 1.07092,-0.39898 0.73495,-0.18898 1.4699,-0.18898 1.04993,0 1.84788,0.31498 0.81894,0.29398 1.04993,0.94493 0.37797,1.09193 0.81894,2.54083 0.44097,1.4489 0.88194,3.00279 0.44097,1.5329 0.86094,3.0448 0.41997,1.49089 0.73495,2.64582 -0.25198,0.29398 -0.75595,0.46196 -0.50396,0.18899 -1.19692,0.18899 -0.50396,0 -0.86094,-0.084 -0.33597,-0.084 -0.56696,-0.25199 -0.20998,-0.16798 -0.35697,-0.44097 -0.126,-0.27298 -0.23099,-0.62995 l -0.37797,-1.4489 h -3.80074 q -0.16799,0.62995 -0.33598,1.30191 -0.16799,0.67195 -0.33598,1.30191 -0.29398,0.10499 -0.62995,0.16799 -0.31498,0.084 -0.77695,0.084 -1.07093,0 -1.59589,-0.35697 -0.50397,-0.37798 -0.50397,-1.02893 0,-0.29398 0.084,-0.58796 0.084,-0.29398 0.18898,-0.69296 0.14699,-0.56696 0.39898,-1.4069 0.27298,-0.83994 0.58796,-1.80588 0.31497,-0.98693 0.67195,-2.01586 0.35698,-1.02893 0.67195,-1.93187 0.31498,-0.92394 0.56697,-1.63789 0.27298,-0.71395 0.41997,-1.09192 z m 2.51983,2.70881 q -0.29398,0.88194 -0.67196,1.97387 -0.35697,1.07093 -0.65095,2.18385 h 2.60382 q -0.29398,-1.13392 -0.60896,-2.20485 -0.29398,-1.09193 -0.54596,-1.95287 z"
           style="font-style:normal;font-variant:normal;font-weight:normal;font-stretch:normal;font-size:20.99856758px;font-family:Baloo;-inkscape-font-specification:'Baloo, Normal';font-variant-ligatures:normal;font-variant-caps:normal;font-variant-numeric:normal;font-feature-settings:normal;text-align:start;writing-mode:lr-tb;text-anchor:start;fill:#1a1a1a;fill-opacity:1;stroke-width:0.52496105"
           id="path878" />
      </g>
    </g>
    <rect
       style="fill:none;fill-opacity:1;stroke:none;stroke-width:4.29515839;stroke-linejoin:round;stroke-miterlimit:4;stroke-dasharray:none;stroke-opacity:1;paint-order:stroke fill markers"
       id="rect1003"
       width="140.03804"
       height="79.375"
       x="4.9632599e-05"
       y="217.62498" />
  </g>
  <style
     id="style930">.a{fill:#c00;}</style>
</svg>
